<?xml version="1.0" encoding="UTF-8"?>
<!DOCTYPE svg PUBLIC "-//W3C//DTD SVG 1.1//EN" "http://www.w3.org/Graphics/SVG/1.1/DTD/svg11.dtd">
<svg xmlns="http://www.w3.org/2000/svg" version="1.1" width="300px" height="300px" style="shape-rendering:geometricPrecision; text-rendering:geometricPrecision; image-rendering:optimizeQuality; fill-rule:evenodd; clip-rule:evenodd" xmlns:xlink="http://www.w3.org/1999/xlink">
<g><path style="opacity:0.008" fill="#72a580" d="M 155.5,72.5 C 156.552,72.3505 157.552,72.5172 158.5,73C 155.205,75.2307 151.705,77.0641 148,78.5C 147.312,77.6683 147.479,77.0016 148.5,76.5C 150.765,74.8726 153.099,73.5392 155.5,72.5 Z"/></g>
<g><path style="opacity:0.024" fill="#81ad92" d="M 140.5,83.5 C 136.48,84.5103 134.647,87.177 135,91.5C 134.282,92.4506 133.449,92.6172 132.5,92C 132.693,90.3547 132.86,88.5213 133,86.5C 136.174,82.3167 140.174,79.3167 145,77.5C 145.5,78 146,78.5 146.5,79C 144.253,80.2775 142.253,81.7775 140.5,83.5 Z"/></g>
<g><path style="opacity:0.004" fill="#2e372c" d="M 114.5,109.5 C 115.833,110.167 115.833,110.167 114.5,109.5 Z"/></g>
<g><path style="opacity:0.004" fill="#619d84" d="M 134.5,106.5 C 136.772,107.797 137.605,109.797 137,112.5C 135.878,110.593 135.045,108.593 134.5,106.5 Z"/></g>
<g><path style="opacity:0.329" fill="#abc9ad" d="M 85.5,127.5 C 88.8634,128.581 89.3634,130.581 87,133.5C 86.3292,134.252 85.4959,134.586 84.5,134.5C 84.448,132.097 84.7814,129.764 85.5,127.5 Z"/></g>
<g><path style="opacity:1" fill="#ecf0d6" d="M 216.5,132.5 C 216.11,137.509 214.777,142.176 212.5,146.5C 210.323,149.754 207.323,151.754 203.5,152.5C 199.215,151.23 194.881,151.23 190.5,152.5C 191.243,153.182 191.909,153.849 192.5,154.5C 191.916,161.508 191.249,168.508 190.5,175.5C 188.292,176.918 187.458,178.918 188,181.5C 193.112,181.362 197.112,183.362 200,187.5C 200.167,188.5 200.333,189.5 200.5,190.5C 199.459,196.301 197.459,201.635 194.5,206.5C 194.607,208.379 194.107,208.712 193,207.5C 191.184,208.329 189.351,209.163 187.5,210C 181.074,211.014 174.741,212.348 168.5,214C 165.763,216.694 164.096,219.527 163.5,222.5C 161.689,222.572 160.356,223.405 159.5,225C 162.453,229.969 162.12,234.636 158.5,239C 155.367,239.86 152.7,241.36 150.5,243.5C 148.708,243.366 147.042,243.699 145.5,244.5C 142.992,242.763 139.992,241.93 136.5,242C 134.963,240.293 133.296,238.793 131.5,237.5C 131.5,237.167 131.5,236.833 131.5,236.5C 131.5,235.833 131.5,235.167 131.5,234.5C 131.5,227.833 131.5,221.167 131.5,214.5C 130.5,214.5 129.5,214.5 128.5,214.5C 123.152,211.767 117.819,208.934 112.5,206C 107.595,200.59 102.262,195.757 96.5,191.5C 93.2453,185.992 90.2453,180.325 87.5,174.5C 89.5846,171.106 89.0846,167.773 86,164.5C 85.6548,157.082 84.4881,150.082 82.5,143.5C 82.4203,140.219 83.087,137.219 84.5,134.5C 85.4959,134.586 86.3292,134.252 87,133.5C 89.3634,130.581 88.8634,128.581 85.5,127.5C 92.2478,116.956 101.915,111.289 114.5,110.5C 116.976,112.53 119.809,114.197 123,115.5C 123.333,115.167 123.667,114.833 124,114.5C 128.511,120.206 133.011,125.872 137.5,131.5C 138.298,131.043 138.631,130.376 138.5,129.5C 141.775,128.386 143.942,126.053 145,122.5C 145.5,121 146,119.5 146.5,118C 146.164,116.97 145.497,116.47 144.5,116.5C 142.156,115.653 140.656,113.986 140,111.5C 137.359,103.704 136.359,95.7037 137,87.5C 138.102,86.051 139.269,84.7177 140.5,83.5C 147.518,80.4357 154.518,77.2691 161.5,74C 168.327,70.5796 174.994,70.9129 181.5,75C 187.694,78.5275 192.528,83.3609 196,89.5C 199.983,91.2986 202.149,94.2986 202.5,98.5C 212.826,98.1568 218.493,103.157 219.5,113.5C 218.579,118.598 217.246,123.598 215.5,128.5C 215.846,129.849 216.179,131.183 216.5,132.5 Z"/></g>
<g><path style="opacity:0.573" fill="#bfddbf" d="M 144.5,116.5 C 145.497,116.47 146.164,116.97 146.5,118C 146,119.5 145.5,121 145,122.5C 143.942,126.053 141.775,128.386 138.5,129.5C 140.892,125.314 142.892,120.981 144.5,116.5 Z"/></g>
<g><path style="opacity:1" fill="#070a0b" d="M 177.5,115.5 C 173.004,115.562 168.671,115.062 164.5,114C 166.609,115.646 168.943,116.812 171.5,117.5C 172.721,118.028 173.887,118.695 175,119.5C 176.251,127.197 177.251,126.863 178,118.5C 178.833,117.667 179.667,116.833 180.5,116C 187.728,114.737 195.061,114.07 202.5,114C 203.329,112.184 204.163,110.351 205,108.5C 206,107.167 207,107.167 208,108.5C 208.667,111.833 208.667,115.167 208,118.5C 203.146,122.69 198.313,126.857 193.5,131C 194.385,133.386 196.052,134.886 198.5,135.5C 200.937,133.773 203.604,132.94 206.5,133C 208.211,134.133 208.711,135.633 208,137.5C 201.514,144.904 193.681,146.571 184.5,142.5C 182.965,141.212 181.299,141.212 179.5,142.5C 179.624,143.107 179.957,143.44 180.5,143.5C 185.986,160.425 183.986,176.425 174.5,191.5C 174.709,192.086 175.043,192.586 175.5,193C 178.5,193.667 181.5,193.667 184.5,193C 186.355,189.767 189.021,188.434 192.5,189C 193.508,193.351 192.175,197.018 188.5,200C 183.534,201.359 178.534,202.526 173.5,203.5C 172.167,203.5 170.833,203.5 169.5,203.5C 169.819,198.637 169.486,193.97 168.5,189.5C 167.261,182.689 163.761,177.356 158,173.5C 159.332,176.48 160.999,179.48 163,182.5C 165.77,193.546 164.103,203.88 158,213.5C 155.027,217.974 151.86,222.307 148.5,226.5C 151.171,227.658 153.171,229.491 154.5,232C 154.355,232.772 154.022,233.439 153.5,234C 149.471,234.303 145.471,234.803 141.5,235.5C 139.971,235.471 138.804,234.804 138,233.5C 138.478,225.825 138.311,218.158 137.5,210.5C 130.5,206.333 123.5,202.167 116.5,198C 96.7881,182.254 88.9548,161.754 93,136.5C 99.8036,118.288 110.47,115.621 125,128.5C 126.122,130.407 126.955,132.407 127.5,134.5C 127.688,140.288 127.022,145.955 125.5,151.5C 122.476,164.702 121.809,178.036 123.5,191.5C 123.369,192.376 123.702,193.043 124.5,193.5C 125.498,185.193 125.831,176.86 125.5,168.5C 126.063,164.029 127.23,159.696 129,155.5C 140.34,144.821 148.674,132.155 154,117.5C 154.667,116.167 154.667,114.833 154,113.5C 151.116,111.732 148.449,109.732 146,107.5C 145.171,102.136 145.337,96.8023 146.5,91.5C 147.855,92.1882 148.855,93.1882 149.5,94.5C 150.254,96.4459 151.588,97.2793 153.5,97C 152.364,95.8549 151.364,94.6883 150.5,93.5C 149.334,91.834 149.334,90.1673 150.5,88.5C 158.212,81.9812 166.879,80.1479 176.5,83C 182.799,88.4558 188.132,94.6224 192.5,101.5C 192.132,102.91 191.299,103.91 190,104.5C 189.774,107.095 189.274,109.595 188.5,112C 186.167,112.333 183.833,112.667 181.5,113C 180.529,114.481 179.196,115.315 177.5,115.5 Z"/></g>
<g><path style="opacity:1" fill="#4d504d" d="M 177.5,115.5 C 175.5,116.167 173.5,116.833 171.5,117.5C 168.943,116.812 166.609,115.646 164.5,114C 168.671,115.062 173.004,115.562 177.5,115.5 Z"/></g>
<g><path style="opacity:1" fill="#8c8f88" d="M 185.5,98.5 C 187.355,98.272 188.188,98.9387 188,100.5C 185.192,101.86 184.359,101.193 185.5,98.5 Z"/></g>
<g><path style="opacity:1" fill="#bec0b5" d="M 162.5,93.5 C 162.5,92.8333 162.833,92.5 163.5,92.5C 167.45,93.1124 171.283,94.1124 175,95.5C 175.684,96.7839 175.517,97.9505 174.5,99C 170.222,99.7591 166.056,100.926 162,102.5C 160.278,102.389 160.112,101.889 161.5,101C 163.025,99.9914 164.692,99.4914 166.5,99.5C 166.5,97.8333 166.5,96.1667 166.5,94.5C 165.041,94.5674 163.708,94.2341 162.5,93.5 Z"/></g>
<g><path style="opacity:1" fill="#282826" d="M 168.5,95.5 C 172.88,96.0992 173.214,97.0992 169.5,98.5C 168.614,97.675 168.281,96.675 168.5,95.5 Z"/></g>
<g><path style="opacity:1" fill="#777b79" d="M 150.5,93.5 C 151.364,94.6883 152.364,95.8549 153.5,97C 151.588,97.2793 150.254,96.4459 149.5,94.5C 150.167,94.5 150.5,94.1667 150.5,93.5 Z"/></g>
<g><path style="opacity:1" fill="#7c7e7a" d="M 163.5,92.5 C 162.833,92.5 162.5,92.8333 162.5,93.5C 160.577,93.205 158.91,92.3717 157.5,91C 159.684,90.8794 161.684,91.3794 163.5,92.5 Z"/></g>
<g><path style="opacity:0.447" fill="#90b59a" d="M 216.5,132.5 C 218.352,133.52 219.685,135.02 220.5,137C 219.096,141.353 216.43,144.519 212.5,146.5C 214.777,142.176 216.11,137.509 216.5,132.5 Z"/></g>
<g><path style="opacity:1" fill="#64655e" d="M 184.5,142.5 C 182.901,142.232 181.568,142.566 180.5,143.5C 179.957,143.44 179.624,143.107 179.5,142.5C 181.299,141.212 182.965,141.212 184.5,142.5 Z"/></g>
<g><path style="opacity:1" fill="#b5b7a8" d="M 127.5,134.5 C 129.114,140.399 128.448,146.065 125.5,151.5C 127.022,145.955 127.688,140.288 127.5,134.5 Z"/></g>
<g><path style="opacity:0.951" fill="#a3c6aa" d="M 203.5,152.5 C 202.003,153.306 200.336,153.972 198.5,154.5C 196.584,153.752 194.584,153.752 192.5,154.5C 191.909,153.849 191.243,153.182 190.5,152.5C 194.881,151.23 199.215,151.23 203.5,152.5 Z"/></g>
<g><path style="opacity:0.38" fill="#c3d8bf" d="M 82.5,143.5 C 84.4881,150.082 85.6548,157.082 86,164.5C 89.0846,167.773 89.5846,171.106 87.5,174.5C 86.4415,173.4 85.6082,172.066 85,170.5C 82.2023,161.246 81.369,152.246 82.5,143.5 Z"/></g>
<g><path style="opacity:1" fill="#595b52" d="M 125.5,168.5 C 125.831,176.86 125.498,185.193 124.5,193.5C 123.702,193.043 123.369,192.376 123.5,191.5C 124.167,183.833 124.833,176.167 125.5,168.5 Z"/></g>
<g><path style="opacity:0.004" fill="#fefffe" d="M 96.5,191.5 C 95.8333,192.167 95.8333,192.167 96.5,191.5 Z"/></g>
<g><path style="opacity:1" fill="#53544c" d="M 168.5,189.5 C 169.486,193.97 169.819,198.637 169.5,203.5C 170.833,203.5 172.167,203.5 173.5,203.5C 172.081,204.451 170.415,204.784 168.5,204.5C 168.5,199.5 168.5,194.5 168.5,189.5 Z"/></g>
<g><path style="opacity:0.096" fill="#c3d8bf" d="M 190.5,175.5 C 190.714,177.144 190.38,178.644 189.5,180C 203.608,183.21 206.775,191.043 199,203.5C 198.092,205.439 196.592,206.439 194.5,206.5C 197.459,201.635 199.459,196.301 200.5,190.5C 200.333,189.5 200.167,188.5 200,187.5C 197.112,183.362 193.112,181.362 188,181.5C 187.458,178.918 188.292,176.918 190.5,175.5 Z"/></g>
<g><path style="opacity:1" fill="#a8c7ad" d="M 128.5,214.5 C 129.5,214.5 130.5,214.5 131.5,214.5C 131.5,221.167 131.5,227.833 131.5,234.5C 131.147,228.265 130.147,222.265 128.5,216.5C 128.5,215.833 128.5,215.167 128.5,214.5 Z"/></g>
<g><path style="opacity:0.727" fill="#458762" d="M 128.5,216.5 C 130.147,222.265 131.147,228.265 131.5,234.5C 131.5,235.167 131.5,235.833 131.5,236.5C 129.933,235.319 129.099,233.653 129,231.5C 128.774,227.113 128.274,222.779 127.5,218.5C 127.863,217.817 128.196,217.15 128.5,216.5 Z"/></g>
<g><path style="opacity:0.227" fill="#aecdb1" d="M 163.5,222.5 C 163.93,228.47 163.43,234.47 162,240.5C 158.673,243.154 154.839,244.154 150.5,243.5C 152.7,241.36 155.367,239.86 158.5,239C 162.12,234.636 162.453,229.969 159.5,225C 160.356,223.405 161.689,222.572 163.5,222.5 Z"/></g>
<g><path style="opacity:0.216" fill="#91bd9e" d="M 131.5,237.5 C 133.296,238.793 134.963,240.293 136.5,242C 139.992,241.93 142.992,242.763 145.5,244.5C 142.503,245.32 139.669,245.653 137,245.5C 135.333,244.5 133.667,243.5 132,242.5C 131.506,240.866 131.34,239.199 131.5,237.5 Z"/></g>
</svg>
