<?xml version="1.0" encoding="UTF-8"?>
<!DOCTYPE svg PUBLIC "-//W3C//DTD SVG 1.1//EN" "http://www.w3.org/Graphics/SVG/1.1/DTD/svg11.dtd">
<svg xmlns="http://www.w3.org/2000/svg" version="1.1" width="300px" height="300px" style="shape-rendering:geometricPrecision; text-rendering:geometricPrecision; image-rendering:optimizeQuality; fill-rule:evenodd; clip-rule:evenodd" xmlns:xlink="http://www.w3.org/1999/xlink">
<g><path style="opacity:1" fill="#14562c" d="M -0.5,-0.5 C 99.5,-0.5 199.5,-0.5 299.5,-0.5C 299.5,99.5 299.5,199.5 299.5,299.5C 199.5,299.5 99.5,299.5 -0.5,299.5C -0.5,199.5 -0.5,99.5 -0.5,-0.5 Z"/></g>
<g><path style="opacity:1" fill="#aac2a4" d="M 166.5,66.5 C 161.797,66.4372 157.13,66.7705 152.5,67.5C 155.017,66.027 157.85,65.3603 161,65.5C 163.033,65.5056 164.866,65.8389 166.5,66.5 Z"/></g>
<g><path style="opacity:1" fill="#aac5a7" d="M 177.5,73.5 C 180.903,75.8998 183.57,78.8998 185.5,82.5C 182.097,80.1002 179.43,77.1002 177.5,73.5 Z"/></g>
<g><path style="opacity:1" fill="#ebeed4" d="M 166.5,66.5 C 170.949,67.618 174.616,69.9513 177.5,73.5C 179.43,77.1002 182.097,80.1002 185.5,82.5C 187.167,83.8333 188.833,85.1667 190.5,86.5C 190.261,88.4672 190.594,90.3005 191.5,92C 194.146,92.4974 196.813,92.6641 199.5,92.5C 201.674,92.7497 203.341,93.7497 204.5,95.5C 207.069,100.454 208.069,105.788 207.5,111.5C 205.745,113.988 203.745,116.322 201.5,118.5C 203.19,120.519 204.856,122.519 206.5,124.5C 206.968,128.936 205.968,132.936 203.5,136.5C 200.786,139.215 197.786,141.549 194.5,143.5C 190.232,144.373 185.898,144.706 181.5,144.5C 181.222,152.17 180.889,159.836 180.5,167.5C 180.167,169.5 179.833,171.5 179.5,173.5C 185.899,172.788 190.066,175.455 192,181.5C 192.032,185.742 191.032,189.742 189,193.5C 187.624,194.705 186.458,196.038 185.5,197.5C 177.384,200.794 169.051,202.794 160.5,203.5C 157.575,205.758 154.909,208.425 152.5,211.5C 151.007,212.312 150.34,213.645 150.5,215.5C 150.52,216.726 150.853,217.726 151.5,218.5C 151.833,219.5 152.5,220.167 153.5,220.5C 154.257,226.094 152.257,230.261 147.5,233C 141.17,233.819 134.836,234.152 128.5,234C 126.677,233.003 125.01,231.836 123.5,230.5C 123.291,229.078 122.791,227.745 122,226.5C 121.831,219.476 121.331,212.476 120.5,205.5C 102.508,197.173 89.1743,184.173 80.5,166.5C 79.7333,162.851 78.3999,159.518 76.5,156.5C 76.5,155.167 76.5,153.833 76.5,152.5C 76.2841,143.467 76.6175,134.467 77.5,125.5C 80.181,113.811 87.5143,107.144 99.5,105.5C 111.688,106.347 120.355,112.347 125.5,123.5C 125.219,128.997 126.553,129.664 129.5,125.5C 131.881,120.195 134.547,115.028 137.5,110C 133.892,106.636 131.392,102.47 130,97.5C 129.169,91.1405 129.336,84.8072 130.5,78.5C 137.339,73.747 144.673,70.0803 152.5,67.5C 157.13,66.7705 161.797,66.4372 166.5,66.5 Z"/></g>
<g><path style="opacity:1" fill="#070a0b" d="M 168.5,107.5 C 164.004,107.562 159.671,107.062 155.5,106C 157.609,107.646 159.943,108.812 162.5,109.5C 163.721,110.028 164.887,110.695 166,111.5C 167.251,119.197 168.251,118.863 169,110.5C 169.833,109.667 170.667,108.833 171.5,108C 178.728,106.737 186.061,106.07 193.5,106C 194.329,104.184 195.163,102.351 196,100.5C 197,99.1667 198,99.1667 199,100.5C 199.667,103.833 199.667,107.167 199,110.5C 194.146,114.69 189.313,118.857 184.5,123C 185.385,125.386 187.052,126.886 189.5,127.5C 191.937,125.773 194.604,124.94 197.5,125C 199.211,126.133 199.711,127.633 199,129.5C 192.514,136.904 184.681,138.571 175.5,134.5C 173.965,133.212 172.299,133.212 170.5,134.5C 170.624,135.107 170.957,135.44 171.5,135.5C 176.986,152.425 174.986,168.425 165.5,183.5C 165.709,184.086 166.043,184.586 166.5,185C 169.5,185.667 172.5,185.667 175.5,185C 177.355,181.767 180.021,180.434 183.5,181C 184.508,185.351 183.175,189.018 179.5,192C 174.534,193.359 169.534,194.526 164.5,195.5C 163.167,195.5 161.833,195.5 160.5,195.5C 160.819,190.637 160.486,185.97 159.5,181.5C 158.261,174.689 154.761,169.356 149,165.5C 150.332,168.48 151.999,171.48 154,174.5C 156.77,185.546 155.103,195.88 149,205.5C 146.027,209.974 142.86,214.307 139.5,218.5C 142.171,219.658 144.171,221.491 145.5,224C 145.355,224.772 145.022,225.439 144.5,226C 140.471,226.303 136.471,226.803 132.5,227.5C 130.971,227.471 129.804,226.804 129,225.5C 129.478,217.825 129.311,210.158 128.5,202.5C 121.5,198.333 114.5,194.167 107.5,190C 87.7881,174.254 79.9548,153.754 84,128.5C 90.8036,110.288 101.47,107.621 116,120.5C 117.122,122.407 117.955,124.407 118.5,126.5C 118.688,132.288 118.022,137.955 116.5,143.5C 113.476,156.702 112.809,170.036 114.5,183.5C 114.369,184.376 114.702,185.043 115.5,185.5C 116.498,177.193 116.831,168.86 116.5,160.5C 117.063,156.029 118.23,151.696 120,147.5C 131.34,136.821 139.674,124.155 145,109.5C 145.667,108.167 145.667,106.833 145,105.5C 142.116,103.732 139.449,101.732 137,99.5C 136.171,94.1357 136.337,88.8023 137.5,83.5C 138.855,84.1882 139.855,85.1882 140.5,86.5C 141.254,88.4459 142.588,89.2793 144.5,89C 143.364,87.8549 142.364,86.6883 141.5,85.5C 140.334,83.834 140.334,82.1673 141.5,80.5C 149.212,73.9812 157.879,72.1479 167.5,75C 173.799,80.4558 179.132,86.6224 183.5,93.5C 183.132,94.91 182.299,95.91 181,96.5C 180.774,99.095 180.274,101.595 179.5,104C 177.167,104.333 174.833,104.667 172.5,105C 171.529,106.481 170.196,107.315 168.5,107.5 Z"/></g>
<g><path style="opacity:1" fill="#7c7e7a" d="M 154.5,84.5 C 153.833,84.5 153.5,84.8333 153.5,85.5C 151.577,85.205 149.91,84.3717 148.5,83C 150.684,82.8794 152.684,83.3794 154.5,84.5 Z"/></g>
<g><path style="opacity:1" fill="#777b79" d="M 141.5,85.5 C 142.364,86.6883 143.364,87.8549 144.5,89C 142.588,89.2793 141.254,88.4459 140.5,86.5C 141.167,86.5 141.5,86.1667 141.5,85.5 Z"/></g>
<g><path style="opacity:1" fill="#bec0b5" d="M 153.5,85.5 C 153.5,84.8333 153.833,84.5 154.5,84.5C 158.45,85.1124 162.283,86.1124 166,87.5C 166.684,88.7839 166.517,89.9505 165.5,91C 161.222,91.7591 157.056,92.9258 153,94.5C 151.278,94.3893 151.112,93.8893 152.5,93C 154.025,91.9914 155.692,91.4914 157.5,91.5C 157.5,89.8333 157.5,88.1667 157.5,86.5C 156.041,86.5674 154.708,86.2341 153.5,85.5 Z"/></g>
<g><path style="opacity:1" fill="#282826" d="M 159.5,87.5 C 163.88,88.0992 164.214,89.0992 160.5,90.5C 159.614,89.675 159.281,88.675 159.5,87.5 Z"/></g>
<g><path style="opacity:1" fill="#7ba281" d="M 190.5,86.5 C 191.931,87.7804 192.598,89.4471 192.5,91.5C 195.059,91.1984 197.393,91.5318 199.5,92.5C 196.813,92.6641 194.146,92.4974 191.5,92C 190.594,90.3005 190.261,88.4672 190.5,86.5 Z"/></g>
<g><path style="opacity:1" fill="#8c8f88" d="M 176.5,90.5 C 178.355,90.272 179.188,90.9387 179,92.5C 176.192,93.8596 175.359,93.1929 176.5,90.5 Z"/></g>
<g><path style="opacity:1" fill="#9aba9a" d="M 204.5,95.5 C 206.61,96.4525 207.777,98.1192 208,100.5C 208.81,104.358 208.643,108.024 207.5,111.5C 208.069,105.788 207.069,100.454 204.5,95.5 Z"/></g>
<g><path style="opacity:1" fill="#4d504d" d="M 168.5,107.5 C 166.5,108.167 164.5,108.833 162.5,109.5C 159.943,108.812 157.609,107.646 155.5,106C 159.671,107.062 164.004,107.562 168.5,107.5 Z"/></g>
<g><path style="opacity:1" fill="#78a582" d="M 125.5,123.5 C 126.467,124.806 127.801,125.473 129.5,125.5C 126.553,129.664 125.219,128.997 125.5,123.5 Z"/></g>
<g><path style="opacity:1" fill="#adc7ac" d="M 206.5,124.5 C 209.579,129.301 208.579,133.301 203.5,136.5C 205.968,132.936 206.968,128.936 206.5,124.5 Z"/></g>
<g><path style="opacity:1" fill="#64655e" d="M 175.5,134.5 C 173.901,134.232 172.568,134.566 171.5,135.5C 170.957,135.44 170.624,135.107 170.5,134.5C 172.299,133.212 173.965,133.212 175.5,134.5 Z"/></g>
<g><path style="opacity:1" fill="#b5b7a8" d="M 118.5,126.5 C 120.114,132.399 119.448,138.065 116.5,143.5C 118.022,137.955 118.688,132.288 118.5,126.5 Z"/></g>
<g><path style="opacity:1" fill="#bcd1b6" d="M 77.5,125.5 C 76.6175,134.467 76.2841,143.467 76.5,152.5C 75.3439,144.677 75.1772,136.677 76,128.5C 76.2321,127.263 76.7321,126.263 77.5,125.5 Z"/></g>
<g><path style="opacity:1" fill="#689370" d="M 194.5,143.5 C 194.389,144.117 194.056,144.617 193.5,145C 189.848,145.499 186.182,145.665 182.5,145.5C 182.594,153.047 181.928,160.38 180.5,167.5C 180.889,159.836 181.222,152.17 181.5,144.5C 185.898,144.706 190.232,144.373 194.5,143.5 Z"/></g>
<g><path style="opacity:1" fill="#63926e" d="M 76.5,156.5 C 78.3999,159.518 79.7333,162.851 80.5,166.5C 77.8193,163.808 76.4859,160.475 76.5,156.5 Z"/></g>
<g><path style="opacity:1" fill="#595b52" d="M 116.5,160.5 C 116.831,168.86 116.498,177.193 115.5,185.5C 114.702,185.043 114.369,184.376 114.5,183.5C 115.167,175.833 115.833,168.167 116.5,160.5 Z"/></g>
<g><path style="opacity:1" fill="#53544c" d="M 159.5,181.5 C 160.486,185.97 160.819,190.637 160.5,195.5C 161.833,195.5 163.167,195.5 164.5,195.5C 163.081,196.451 161.415,196.784 159.5,196.5C 159.5,191.5 159.5,186.5 159.5,181.5 Z"/></g>
<g><path style="opacity:1" fill="#3e744d" d="M 185.5,197.5 C 183.424,199.714 180.758,201.214 177.5,202C 171.877,203.029 166.21,203.529 160.5,203.5C 169.051,202.794 177.384,200.794 185.5,197.5 Z"/></g>
<g><path style="opacity:1" fill="#86a786" d="M 152.5,211.5 C 151.781,213.764 151.448,216.097 151.5,218.5C 150.853,217.726 150.52,216.726 150.5,215.5C 150.34,213.645 151.007,212.312 152.5,211.5 Z"/></g>
<g><path style="opacity:1" fill="#427953" d="M 153.5,220.5 C 155.542,226.853 153.542,231.687 147.5,235C 140.167,235.667 132.833,235.667 125.5,235C 123.893,233.951 123.227,232.451 123.5,230.5C 125.01,231.836 126.677,233.003 128.5,234C 134.836,234.152 141.17,233.819 147.5,233C 152.257,230.261 154.257,226.094 153.5,220.5 Z"/></g>
</svg>
